<?xml version="1.0" encoding="UTF-8"?><svg id="Layer_2" xmlns="http://www.w3.org/2000/svg" xmlns:xlink="http://www.w3.org/1999/xlink" viewBox="0 0 764.33 375.26"><defs><style>.cls-1{fill:#304e9f;}.cls-2{fill:#fcd379;}.cls-3{fill:#92a5cf;}.cls-4{clip-path:url(#clippath-2);}.cls-5{fill:#afbddb;}.cls-6{fill:#d8dfee;}.cls-7{clip-path:url(#clippath-1);}.cls-8{fill:#ada68b;}.cls-9{clip-path:url(#clippath);}.cls-10{fill:#a3bee3;}.cls-11{fill:none;}.cls-12{fill:#fafbfb;}.cls-13{clip-path:url(#clippath-3);}.cls-14{fill:#d1d9e9;}.cls-15{fill:#d1ba81;}.cls-16{fill:#c2dbf3;}.cls-17{fill:#8aa7d6;}</style><clipPath id="clippath"><rect class="cls-11" x="460.52" width="303.81" height="175.67"/></clipPath><clipPath id="clippath-1"><rect class="cls-11" y="159.84" width="269.74" height="215.41"/></clipPath><clipPath id="clippath-2"><rect class="cls-11" x="36.57" y="368.41" width="47.94" height="6.85"/></clipPath><clipPath id="clippath-3"><rect class="cls-11" x="35.18" y="272.5" width="133.33" height="102.76"/></clipPath></defs><g id="Layer_1-2"><g class="cls-9"><path class="cls-12" d="M460.71,33.53c-.3-11.87,11.13-21.16,22.71-23.9,11.58-2.89,23.77-1.36,35.51-3.04,12.95-1.67,25.46-7.16,38.41-6.55,24.53,1.07,42.67,21.92,63.39,35.17,8.99,5.79,59.74,9.29,95.41,33.49,6.24,4.27,12.65,8.07,19.51,11.11,9.14,4.11,17.53,2.89,22.4,12.79,5.33,10.96,7.62,23.14,5.48,35.17-6.09,35.02-37.48,48.56-69.79,47.34-2.59-.15-5.19-.3-7.62-1.21-5.79-2.28-10.82-11.57-14.94-16.14-6.09-6.85-12.34-13.55-17.68-20.85-2.59-3.5-5.48-7.15-9.29-9.29-6.71-3.65-14.79-1.83-22.41-1.22-26.21,2.28-51.96-9.9-72.54-26.33-20.73-16.44-37.49-36.99-56.69-55.11-7.47-6.69-22.1-14.15-31.85-11.42"/></g><path class="cls-1" d="M685.5,173.74c-.3,0-.76-.15-1.06-.3-5.94-4.72-11.43-10.05-16.31-15.83-2.59-3.05-5.19-6.85-7.62-10.66-6.71-10.05-13.72-20.4-23.62-18.88-7.17,1.06-16.46,.76-24.08,.46h-1.98c-11.13-.46-20.88-2.74-29.1-7.01-9.6-5.03-17.07-12.64-20.72-21.62-.31-.92,0-1.82,.92-2.13,.91-.31,1.82,0,2.13,.91,3.35,8.22,10.21,15.22,19.2,19.95,7.77,3.95,17.07,6.23,27.73,6.69h1.98c7.46,.31,16.61,.61,23.46-.46,12.04-1.82,19.66,9.45,26.83,20.25,2.59,3.81,4.88,7.31,7.46,10.35,4.88,5.63,10.21,10.81,16,15.53,.77,.61,.77,1.68,.31,2.29-.61,.3-1.07,.45-1.53,.45"/><path class="cls-1" d="M747.68,87.57c-.31,0-.46,0-.77-.15-8.68-4.42-17.37-9.44-25.91-14.16-21.64-12.33-43.89-24.96-68.12-29.84-25.91-5.33-50.75-15.98-72.39-31.05-11.89-8.22-27.13-8.83-41.15-7.77-11.89,.92-23.63,2.29-35.51,3.81-10.06,1.38-21.34,1.98-29.26,9.14-4.73,4.27-7.62,10.66-13.26,13.7-.46,.15-.92,.45-1.22,.15-.46-.3-.3-1.06,0-1.52,8.23-15.07,23.32-22.83,40.08-23.75,5.94-.31,11.88-1.37,17.68-2.29,22.86-3.19,46.64-6.54,64.62,5.94,21.18,14.77,45.72,25.27,71.01,30.45,24.84,5.02,47.4,17.81,69.19,30.29,8.39,4.72,17.07,9.74,25.76,14.16,.76,.46,1.22,1.37,.76,2.29-.46,.3-.92,.6-1.52,.6"/><path class="cls-6" d="M703.4,175.03c7.28-.42,14.37-1.63,21.01-3.73-.79,.34-1.54,.65-1.72,.77-6.55,2.16-12.88,2.93-19.29,2.96m-17.56-1.24c-.11-.02-.22-.03-.34-.04,.07,0,.15,0,.22-.01,.04,.02,.08,.04,.12,.05m-92.68-47.84c-2.02-.18-4.04-.41-6.08-.71-.07-.46-.13-.91-.2-1.36,2.02,.79,4.11,1.48,6.28,2.08"/><path class="cls-14" d="M702.99,175.03c-5.59,0-11.24-.55-17.15-1.24-.04-.02-.08-.03-.12-.05,.39-.04,.79-.19,1.31-.44,.46-.61,.46-1.67-.31-2.29-5.79-4.71-11.13-9.9-16-15.53-2.59-3.05-4.88-6.55-7.46-10.35-6.65-10.03-13.68-20.44-24.28-20.44-.83,0-1.68,.06-2.55,.19-3.63,.57-7.89,.74-12.2,.74-3.85,0-7.74-.14-11.26-.29h-1.98c-9.29-.4-17.53-2.18-24.63-5.24-.3-2.2-.59-4.41-.87-6.63-.27-2.14-.53-4.28-.78-6.43,3.57-.55,7.16-1.13,10.73-1.77,2.8-.07,5.94-.68,8.82-1.8,8.52-1.97,16.8-4.66,24.41-8.88,9.6,3.51,16.76,10.81,23.93,17.97,10.67,10.8,21.79,21.16,33.21,31.05,5.65,4.87,33.38,25.42,40.7,26.34,.27,.27-.95,.85-2.09,1.35-6.64,2.1-13.73,3.32-21.01,3.73h-.41"/><path class="cls-1" d="M685.5,173.74c-11.28-9.29-20.27-22.53-28.04-34.86-2.44-3.96-9.15-8.98-13.26-11.11-2.24-1.22-5.16-1.35-7.97-1.35-.4,0-.81,0-1.2,0-.4,0-.79,0-1.18,0-.58,0-1.15,0-1.69-.03-2.92-.14-5.8-.19-8.66-.19s-5.9,.05-8.83,.1c-2.93,.05-5.84,.1-8.76,.1-4.24,0-8.48-.1-12.77-.47-2.17-.59-4.27-1.29-6.28-2.08-.18-1.26-.35-2.51-.53-3.77,7.1,3.06,15.34,4.84,24.63,5.24h1.98c3.52,.15,7.41,.29,11.26,.29,4.32,0,8.58-.18,12.2-.74,.87-.13,1.72-.19,2.55-.19,10.59,0,17.63,10.42,24.28,20.44,2.59,3.81,4.88,7.31,7.46,10.35,4.88,5.63,10.21,10.81,16,15.53,.77,.61,.77,1.68,.31,2.29-.52,.26-.92,.4-1.31,.44-.07,0-.15,.01-.22,.01"/><path class="cls-2" d="M575.78,8.72c4.42,46.28,6.85,101.08,16.61,146.59-117.96,11.88-229.06,31.82-348.84,49.18-5.34-50.08-13.87-100.02-25.76-149.04,114.3-15.68,244.44-26.95,357.98-46.73"/><path class="cls-6" d="M510.16,164.9c27.16-3.55,54.51-6.78,82.23-9.58-27.73,2.8-55.07,6.03-82.23,9.58"/><path class="cls-14" d="M584.69,107.03c-.14-1.09-.26-2.18-.39-3.27,.01,0,.02,0,.03,0,.13,1.09,.25,2.17,.37,3.26h-.01"/><path class="cls-5" d="M585.48,113.46c-.28-2.14-.54-4.28-.79-6.43h.01c.25,2.15,.51,4.3,.78,6.43"/><path class="cls-14" d="M579.83,56.56c-1.24-15.01-2.38-29.78-3.68-43.83,.03-.01,.05-.03,.08-.05,1.36,14.06,2.51,28.83,3.72,43.84-.04,.01-.09,.03-.13,.04"/><path class="cls-15" d="M510.16,164.9c-.32-8.67-.55-17.34-.68-26.02-24.55,2.8-49.75,5.98-75.34,9.34,14.63-5.39,28.38-11.49,40.59-18.63,26.86-15.66,46.14-36.45,60.59-56.22,4.07,2.52,8.29,4.79,12.86,6.14,1.96,.62,4,1.03,5.87,1.8,3.56,4.61,5.48,10.89,9.98,14.79,2.89,2.44,6.85,3.65,10.51,4.87,3.24,1,6.48,2,9.75,2.79,.13,1.09,.25,2.18,.39,3.27,.26,2.15,.52,4.29,.79,6.43,1.8,14.46,4.02,28.56,6.91,41.86-27.72,2.8-55.07,6.03-82.23,9.58m50.19-104.53c-4.94,0-9.89-.74-14.61-2.2,14.35-22.28,22.96-40.85,30.41-45.44,1.3,14.05,2.44,28.82,3.68,43.83-1.9,.52-3.79,1.2-5.73,1.79-4.45,1.35-9.09,2.02-13.74,2.02"/><path class="cls-12" d="M612.51,98.69c-16.92,9.59-40.69,4.42-52.12-11.42-1.22-1.67-2.29-3.35-3.81-4.57-2.44-1.82-5.48-2.28-8.38-3.19-6.71-1.98-12.65-5.94-18.44-9.74-3.96-2.59-7.92-5.48-10.36-9.59-2.43-4.11-.76-10.5,2.74-13.7,5.03,1.68,9.3,5.03,14.02,7.61,11.43,6.4,25.45,8.07,37.95,4.27,3.5-1.07,6.86-2.43,10.36-2.59,13.72-.61,29.72-5.33,42.07,.76l-14.02,42.17"/><path class="cls-14" d="M594.95,105.26c-.3,0-.6,0-.89-.02-3.31-.15-6.54-.71-9.73-1.47-.05-.43-.09-.86-.14-1.3,3.08,.69,6.23,1.04,9.38,1.04,5.77,0,11.5-1.18,16.7-3.66-1.65,1.51-3.76,2.71-6.03,3.6-2.92,.67-5.86,1.26-8.82,1.8h-.47"/><path class="cls-5" d="M595.43,105.26c2.96-.54,5.9-1.13,8.82-1.8-2.88,1.13-6.02,1.73-8.82,1.8"/><path class="cls-5" d="M584.33,103.77s-.02,0-.03,0c-.05-.43-.09-.86-.15-1.3,.01,0,.02,0,.03,0,.05,.44,.09,.86,.14,1.3"/><path class="cls-8" d="M584.3,103.76c-3.27-.79-6.51-1.79-9.75-2.79-3.66-1.22-7.62-2.43-10.51-4.87-4.49-3.9-6.42-10.18-9.98-14.79,.88,.36,1.73,.81,2.51,1.39,1.53,1.22,2.59,2.9,3.81,4.57,5.67,7.85,14.37,13.09,23.77,15.19,.05,.44,.1,.86,.15,1.3"/><path class="cls-14" d="M614.46,92.8l1.42-4.27c-.33,1.44-.84,2.88-1.42,4.27"/><path class="cls-14" d="M593.57,103.51c-3.15,0-6.3-.35-9.38-1.04-.02,0-.02,0-.03,0-9.4-2.1-18.1-7.34-23.77-15.19-1.22-1.67-2.29-3.35-3.81-4.57-.78-.58-1.63-1.03-2.51-1.39-1.03-1.33-2.18-2.52-3.58-3.48-2.9-1.98-6.55-2.59-9.91-3.65-4.42-1.22-8.54-3.2-12.35-5.79-2.74-1.82-6.7-5.18-8.22-8.22-1.53-2.73,.45-9.58,2.43-12.33,5.49,11.88,15.85,21.16,28.2,25.27,3.2,1.07,6.55,1.83,9.9,2.59,9.3,2.43,18.14,5.94,27.43,8.22,4.98,1.22,10.13,2.01,15.22,2.01,4.42,0,8.8-.59,12.98-2.01,.22,1.51,.07,3.06-.28,4.61l-1.42,4.27c-.49,1.19-1.02,2.35-1.5,3.46-.61,1.34-1.54,2.54-2.69,3.6-5.2,2.47-10.93,3.66-16.7,3.66"/><path class="cls-1" d="M530.82,48.6c.3,.31,.61,.46,1.06,.76,7.62,5.48,16.77,9.14,26.06,9.29,8.39,.15,16.46-2.13,24.69-3.81,8.99-1.82,17.98-2.73,27.13-2.73,5.64,0,11.28,.3,16.46,2.43,1.22,.46,2.59,1.82,1.67,2.9-.3,.45-.91,.45-1.52,.6-1.53,0-3.05-.46-4.57-.92-9.29-2.58-19.05-1.97-28.49-.3-9.45,1.68-18.75,3.96-28.34,4.72-9.6,.76-19.51-.16-27.89-4.87-3.51-1.98-6.56-4.42-10.06-6.24-.76-.46-1.67-.92-2.59-.92-2.13,0-3.81,1.98-4.27,4.11-.3,1.83,.16,3.65,.61,5.33,.45,1.37,1.67,2.59,2.59,3.49,2.29,2.29,4.88,4.12,7.47,5.94,5.64,3.81,11.43,7.76,17.98,9.59,.6,.15,1.22,.3,1.68,.45,2.43,.61,5.03,1.37,7.31,3.04,1.52,1.22,2.59,2.74,3.51,4.11l.61,.91c10.81,15.07,33.67,20.09,49.98,10.96,.76-.45,1.83-.15,2.29,.61,.46,.76,.16,1.82-.61,2.28-6.25,3.35-13.1,4.87-19.96,4.87-13.26,0-26.82-6.09-34.59-16.9l-.61-.91c-.92-1.38-1.83-2.59-2.9-3.51-1.68-1.22-3.81-1.82-6.1-2.44-.6-.15-1.21-.3-1.83-.45-7.01-1.98-13.1-6.09-18.9-10.05-4.27-2.89-8.68-5.94-11.13-10.66-2.13-3.96-1.98-9.59,1.68-12.64,1.97-1.67,4.88-2.28,7.46-1.36,1.52,.3,2.89,1.22,4.11,2.28"/><path class="cls-1" d="M267.93,189.27c-.3,0-.46,0-.76-.15-.46-.16-.76-.61-.91-1.07-1.38-4.72-4.27-6.85-9.45-7.16-.76,0-1.37-.6-1.53-1.37-4.72-27.1-10.51-54.2-17.07-80.98-.15-.76-.3-1.53-.6-2.29-.76-3.04-1.68-6.4-1.68-9.59,0-.61,.46-1.22,.92-1.53,7.92-3.66,12.8-12.79,11.43-21.31-.16-.92,.46-1.82,1.37-1.98,.92-.16,1.83,.46,1.98,1.37,1.52,9.59-3.81,19.94-12.35,24.35,.16,2.44,.92,5.03,1.53,7.61,.15,.76,.46,1.52,.61,2.28,6.56,26.34,12.19,53.14,16.92,79.92,5.18,.61,8.69,3.2,10.52,7.77,23.01-8.38,47.85-10.2,72.09-12.03,5.02-.46,10.21-.76,15.24-1.22,72.23-6.39,141.73-16.44,206.19-29.69,0-9.14,3.97-17.36,10.52-22.07,0-1.22-.16-2.9-.3-4.72-.31-3.5-.61-7.15-.31-9.28,.16-.92,.92-1.68,1.83-1.52,.91,.15,1.53,.91,1.53,1.82-.16,1.83,.15,5.48,.3,8.68,.15,2.29,.31,4.41,.31,5.79,0,.61-.31,1.07-.77,1.37-6.4,4.26-10.21,12.33-9.75,21.16,0,.76-.46,1.53-1.38,1.67-65.07,13.4-135.02,23.6-208.03,30.15-5.03,.46-10.21,.92-15.24,1.22-24.38,1.82-49.68,3.81-72.69,12.48,0,.31-.16,.31-.46,.31"/><path class="cls-1" d="M251.93,64.9c-.76,0-1.53-.46-1.67-1.37-.16-.92,.3-1.83,1.21-1.98,29.57-6.4,60.05-8.98,89.61-11.42,3.51-.31,6.86-.61,10.36-.92,28.8-2.43,57.76-5.33,86.56-8.68l12.04-1.37c20.27-2.28,41.3-4.72,61.72-7.46,12.49-1.67,25.3-4.41,36.58-6.85,.61-.15,1.22,.16,1.68,.61,5.03,6.09,9.6,10.04,16.61,10.8,.76,0,1.38,.61,1.53,1.38,.15,1.37,.46,2.73,.61,4.11,.31,1.37,.45,2.89,.61,4.27,.16,.91-.46,1.82-1.37,1.82-.92,.15-1.83-.46-1.83-1.38-.15-1.36-.45-2.73-.61-4.11-.15-.91-.3-1.98-.46-2.89-7.01-1.07-12.04-5.18-16.91-10.96-11.13,2.43-23.62,5.02-35.81,6.7-20.43,2.74-41.46,5.17-61.72,7.46l-12.04,1.37c-28.65,3.35-57.76,6.24-86.56,8.68-3.5,.31-6.86,.61-10.36,.92-29.42,2.43-59.9,5.02-89.15,11.42-.31-.15-.46-.15-.61-.15"/><path class="cls-1" d="M443.65,106.76c1.22,9.44-4.42,15.68-13.56,18.27l.76,5.94c.15,1.37-.15,2.28-1.98,2.59l-6.1,.77c-1.82,.3-2.44-.61-2.59-1.98l-.76-6.09c-8.38-.61-16.77-5.18-17.98-14.16-.3-1.83,.15-2.29,1.98-2.59l7.62-1.06c1.82-.31,2.73-.16,3.19,1.82,.16,1.06,.77,1.98,1.98,3.05,1.83,1.67,5.18,1.98,8.08,1.52,4.27-.61,7.62-1.98,7.01-6.39-.6-4.42-7.62-3.66-14.63-4.88-8.38-1.52-16.16-3.65-17.38-13.7-1.22-8.83,5.03-14.61,13.1-17.2l-.76-6.09c-.16-1.38,.16-2.29,1.98-2.59l6.09-.76c1.83-.31,2.44,.61,2.59,1.98l.77,6.39c7.92,.61,15.24,4.27,16.3,12.49,.31,1.82-.15,2.28-1.98,2.59l-7.77,1.06c-1.52,.16-1.83-.92-2.44-1.83-.46-.76-.91-1.37-1.98-2.13-1.67-1.21-4.57-1.53-7.01-1.21-2.59,.3-6.86,1.97-6.4,5.47,.6,4.87,12.49,5.03,15.85,5.94,5.94,.76,14.47,1.97,16,12.79"/><g class="cls-7"><path class="cls-12" d="M90.54,360.99c6.4-11.26,12.49-23.59,17.22-35.17,1.68-4.11,3.51-8.38,6.71-11.27,5.64-5.17,13.87-5.48,21.34-6.69,26.06-4.27,47.85-22.53,63.85-43.54,16.01-21.01,27.29-45.06,41.3-67.44,5.33-8.38,17.83-19.18,27.89-19.03-2.59-11.56-16-17.65-28.04-17.65-11.89,.15-23.31,4.56-35.2,5.93-12.95,1.52-26.36-.6-38.86,3.2-23.47,7.16-35.97,31.82-52.73,49.78-7.32,7.76-55.63,23.74-84.13,56.03-6.25,7.15-12.8,13.39-20.11,18.57-11.43,8.07-10.36,23.6-8.84,36.08,.91,7.46,2.43,15.22,6.86,21.47,4.11,6.09,10.51,10.35,17.22,13.39,19.05,9.14,51.96,20.1,65.53-3.65"/></g><path class="cls-1" d="M85.35,369.52c-.3,0-.76-.16-1.07-.31-.76-.6-.91-1.52-.3-2.28,4.42-5.94,8.38-12.33,11.58-18.88,1.67-3.51,3.2-7.46,4.57-11.88,4.42-12.33,8.83-25.12,21.03-26.34,6.86-.61,15.7-3.35,22.86-5.48l1.83-.61c10.21-3.05,18.6-7.46,25.15-13.24,7.46-6.7,12.34-15.22,13.56-24.05,.16-.91,.92-1.53,1.83-1.37,.92,.16,1.52,.92,1.38,1.82-1.38,9.59-6.56,18.89-14.79,26.04-6.86,6.09-15.69,10.81-26.36,14.01l-1.83,.6c-7.31,2.14-16.3,4.88-23.46,5.48-10.06,.92-14.18,12.64-18.14,24.06-1.52,4.11-3.05,8.52-4.72,12.18-3.35,6.85-7.32,13.4-11.89,19.48-.16,.45-.76,.77-1.22,.77"/><path class="cls-1" d="M3.82,301.32c-.46,0-.91-.16-1.22-.61-.6-.76-.6-1.67,.16-2.28,7.32-6.4,14.48-13.4,21.49-20.09,18.14-17.51,36.72-35.47,59.44-46.43,23.16-11.27,44.34-27.55,61.1-47.04,14.33-16.59,38.1-19.18,61.11-21.77,10.97-1.06,22.26-4.72,33.22-3.65,10.97,1.07,21.18,6.85,28.96,14.16,.46,.46,.91,.92,.76,1.52-.15,1.22-2.14,.92-3.05,.16-7.62-5.33-14.02-10.2-23.02-12.33-11.28-2.59-25.15,2.44-36.42,3.66-22.4,2.43-45.41,5.03-58.83,20.7-17.07,19.95-38.7,36.39-62.33,47.81-22.25,10.81-40.69,28.62-58.67,45.82-7.02,6.7-14.18,13.7-21.49,20.1-.46,.15-.92,.31-1.22,.31"/><g class="cls-4"><path class="cls-6" d="M62.21,375.35c-10.11,0-20.2-2.33-24.86-5.07-.24-.16-.52-.4-.69-.66,8.5,3.17,18.06,5.67,27.02,5.67,.7,0,1.41-.01,2.1-.05-1.19,.07-2.39,.1-3.57,.1m7.29-.44c5.33-.74,10.29-2.6,14.46-6.02,.1,.11,.2,.22,.33,.32,.06,.04,.13,.07,.2,.09-.01,.02-.03,.04-.04,.06-3.79,3.09-9.14,4.8-14.94,5.54"/></g><g class="cls-13"><path class="cls-14" d="M63.68,375.29c-8.95,0-18.52-2.5-27.02-5.67-.15-.24-.22-.5-.08-.72,6.86-2.59,32.77-28.01,37.04-34.1,8.69-12.48,16.92-25.27,24.54-38.36,5.18-8.83,10.36-17.66,18.74-23.45,6.19,1.64,12.74,2.71,19.39,3.33l1.49,2.3c.7,.19,1.4,.35,2.1,.5,2.88,1.61,6.63,2.33,10.26,2.33,2.55,0,5.04-.35,7.15-.99,3.12-.9,6.09-2.22,8.97-3.75,.75,5.36,1.45,10.69,2.07,15.99-6.11,4.72-13.61,8.4-22.48,11.05l-1.83,.61c-7.16,2.13-16,4.87-22.86,5.48-12.19,1.22-16.61,14.01-21.03,26.34-1.38,4.42-2.9,8.37-4.57,11.88-3.2,6.55-7.17,12.94-11.58,18.88-.51,.64-.49,1.38-.03,1.96-4.17,3.42-9.13,5.28-14.46,6.02-1.22,.16-2.47,.27-3.72,.34-.7,.04-1.4,.05-2.1,.05"/></g><path class="cls-1" d="M84.48,369.3c-.07-.03-.14-.06-.2-.09-.13-.09-.23-.21-.33-.32-.46-.58-.48-1.33,.03-1.96,4.42-5.94,8.38-12.33,11.58-18.88,1.67-3.51,3.2-7.46,4.57-11.88,4.42-12.33,8.83-25.12,21.03-26.34,6.86-.61,15.7-3.35,22.86-5.48l1.83-.61c8.88-2.65,16.37-6.33,22.48-11.05,.08,.72,.17,1.44,.25,2.16,0,.02-.02,.04-.02,.06-.61,1.53-2.29,2.29-3.81,3.05-14.48,6.39-24.69,9.28-39.93,14.01-3.66,1.22-7.62,.15-10.36,2.74-3.51,3.19-8.38,6.85-9.75,11.42-4.42,13.83-11.56,31.3-20.23,43.17"/><path class="cls-16" d="M151.04,182.27c7.16,45.97,18.59,99.71,20.27,146.15,117.19-17.82,229.67-26.04,350.21-38.82-7.31-49.93-11.28-100.32-12.04-150.71-114.6,13.09-243.53,34.41-358.44,43.39"/><path class="cls-6" d="M171.31,328.42c-.42-10.4-1.32-21.14-2.55-32.08,.04-.03,.08-.05,.11-.08,1.2,10.97,2.06,21.75,2.44,32.16,92.7-14.09,182.46-22.18,275.58-31.28-93.13,9.24-182.88,17.31-275.58,31.28"/><path class="cls-1" d="M168.76,296.34c-.05-.49-.11-.98-.17-1.47,.04-.09,.07-.18,.09-.26l.19,1.66s-.07,.05-.11,.08"/><path class="cls-5" d="M168.34,292.7c-.63-5.3-1.32-10.63-2.07-15.99,.06-.03,.11-.06,.16-.09,.74,5.36,1.42,10.7,2.03,15.98-.04,.03-.08,.07-.12,.09"/><path class="cls-1" d="M168.59,294.86c-.08-.72-.17-1.44-.25-2.16,.04-.03,.08-.06,.12-.09,.08,.67,.16,1.33,.22,1.99-.03,.08-.06,.17-.09,.26"/><path class="cls-6" d="M521.5,289.44s0-.02,0-.03c0,.01,.02,.02,.03,.03h-.02"/><path class="cls-14" d="M159.05,229.92c-.08,0-.16,0-.23,0-2.56-14.99-5.13-29.75-7.31-43.84,.05,.02,.09,.03,.15,.05,2.24,14.06,4.83,28.8,7.4,43.8"/><path class="cls-10" d="M171.31,328.42c-.38-10.41-1.24-21.19-2.44-32.16l-.19-1.66c-.07-.67-.15-1.33-.22-1.99-.61-5.29-1.29-10.63-2.03-15.98,2.97-1.58,5.85-3.39,8.69-5.15,3.35-1.98,6.7-4.26,8.99-7.45,3.43-4.85,3.65-11.44,6-16.78,1.61-1.23,3.51-2.13,5.28-3.17,4.19-2.41,7.72-5.68,11.02-9.17,18.89,15.53,42.68,30.84,72.49,39.32,30.65,8.78,67.51,10.58,104.26,10.58,12.79,0,25.56-.22,38.06-.43,12.49-.22,24.71-.44,36.38-.44,24.49,0,46.57,.96,63.77,4.91,0,.14,0,.42,.13,.58,0,.01,0,.02,0,.03-25.19,2.73-50.01,5.26-74.61,7.7-93.13,9.09-182.88,17.18-275.58,31.28m-4.6-98.17c-.55,0-1.09,0-1.65-.02-1.97-.09-4-.28-6.01-.3-2.57-15-5.16-29.73-7.4-43.8,8.4,2.66,21.43,18.64,41,36.74-7.74,4.75-16.81,7.38-25.94,7.38"/><path class="cls-12" d="M137.78,278.63c18.74,5.03,40.54-5.78,47.7-23.9,.76-1.82,1.37-3.81,2.59-5.47,1.83-2.44,4.72-3.66,7.32-5.18,6.09-3.5,10.82-8.83,15.39-14.01,3.2-3.5,6.4-7.31,7.63-11.72,1.22-4.57-1.98-10.35-6.1-12.64-4.57,2.89-7.77,7.15-11.58,10.96-9.45,8.98-22.56,14.01-35.67,13.55-3.51-.16-7.16-.61-10.67,0-13.56,2.89-30.18,2.28-40.69,11.11l24.08,37.3"/><path class="cls-14" d="M163.68,276.42c.81-.34,1.6-.72,2.39-1.11,.04,.3,.09,.59,.14,.89-.83,.08-1.68,.16-2.52,.22"/><path class="cls-5" d="M150.15,281.46c-3.64,0-7.39-.72-10.26-2.33,2.44,.49,4.92,.73,7.4,.73,5.6,0,11.21-1.22,16.39-3.44,.84-.06,1.69-.14,2.52-.22,.02,.17,.05,.34,.07,.51-2.89,1.53-5.85,2.85-8.97,3.75-2.11,.65-4.6,.99-7.15,.99"/><path class="cls-5" d="M166.42,276.55c-.04-.12-.09-.23-.14-.35-.03,0-.06,0-.08,0-.04-.3-.09-.59-.14-.89,.06-.03,.11-.05,.17-.08,.07,.44,.13,.88,.19,1.32"/><path class="cls-3" d="M166.27,276.71c-.02-.17-.05-.34-.07-.51,.02,0,.05,0,.08,0,.05,.11,.09,.23,.14,.35,0,.03,0,.06,.01,.08-.05,.03-.1,.06-.16,.09"/><path class="cls-17" d="M166.43,276.63s0-.05-.01-.08c-.06-.44-.12-.88-.19-1.32,8.57-4.35,15.71-11.53,19.26-20.5,.76-1.82,1.37-3.81,2.59-5.47,.58-.78,1.28-1.44,2.04-2.02-2.35,5.34-2.57,11.93-6,16.78-2.29,3.19-5.64,5.47-8.99,7.45-2.84,1.76-5.72,3.57-8.69,5.15"/><path class="cls-14" d="M135.08,274.44c-1.2-1.55-2.36-3.22-3.21-4.96l3.21,4.96"/><path class="cls-14" d="M147.29,279.86c-2.48,0-4.96-.24-7.4-.73-1.25-.7-2.33-1.58-3.18-2.63-.53-.66-1.08-1.34-1.63-2.06l-3.21-4.96c-.64-1.32-1.09-2.69-1.25-4.09,.91,.08,1.81,.11,2.71,.11,8.54,0,16.98-3.12,24.56-7.11,8.39-4.57,16.16-10.2,24.54-14.77,3.05-1.67,6.09-3.19,8.99-5.02,10.82-7.01,18.74-18.73,21.03-31.52,2.59,2.14,5.48,9.44,4.72,12.64-.76,3.35-2.74,6.24-5.02,8.68-3.2,3.35-6.71,6.4-10.67,8.68-3.05,1.83-6.25,3.35-8.69,5.94-1.16,1.26-2.02,2.69-2.69,4.23-.76,.57-1.45,1.23-2.04,2.02-1.22,1.67-1.83,3.65-2.59,5.47-3.55,8.97-10.68,16.15-19.26,20.5-.05,.03-.1,.05-.17,.08-.78,.39-1.57,.77-2.39,1.11-5.18,2.22-10.79,3.44-16.39,3.44"/><path class="cls-1" d="M211.54,206.02c2.9-.91,6.09,.46,7.62,3.04,1.68,2.9,1.52,6.85,.61,9.9-1.38,5.03-4.89,8.98-8.08,12.48-4.73,5.33-9.45,10.66-15.85,14.46-.61,.31-1.07,.61-1.67,.91-1.98,1.07-3.97,2.13-5.19,3.81-.91,1.07-1.37,2.59-1.97,4.11l-.46,1.07c-5.64,15.07-22.41,25.73-39.17,25.73-3.36,0-6.71-.46-9.91-1.22-.92-.3-1.38-1.22-1.22-1.98,.3-.91,1.22-1.37,1.98-1.22,17.98,4.88,38.86-5.64,45.72-22.98l.31-.92c.6-1.67,1.22-3.35,2.43-4.87,1.68-2.13,3.96-3.51,6.25-4.72,.46-.3,1.07-.6,1.53-.91,5.94-3.34,10.51-8.67,15.08-13.7,2.9-3.2,6.1-6.85,7.32-11.11,.46-1.37,.3-2.89-.15-4.27-1.22-3.65-5.95-4.87-8.69-2.13-.91,.91-1.68,1.82-2.59,2.74-1.06,1.21-2.29,2.43-3.51,3.65-9.29,9.29-22.55,12.64-35.35,13.85-8.23,.76-16.46,.76-24.53,1.67-9.15,1.06-18.44,3.35-26.06,8.38-.61,.46-1.22,.76-1.83,.91-.61,.15-1.53-.15-1.83-.76-.46-.91,.45-1.98,1.37-2.58,7.16-5.03,16-7.16,24.54-8.38,3.05-.46,6.1-.76,9.15-1.07,4.88-.45,9.91-1.21,14.78-1.37,2.89,0,5.79,.16,8.68,0,3.2-.16,6.26-.76,9.3-1.52,6.24-1.83,11.73-5.33,16.91-9.29,2.59-1.97,4.88-4.11,7.32-6.23,1.98-1.98,4.11-4.72,7.16-5.48"/><path class="cls-1" d="M195.84,311.82c-.77,0-1.53-.6-1.67-1.37-1.83-8.67-7.47-15.53-14.79-17.96-.46-.15-.92-.6-1.07-1.22-.31-1.36-.77-3.5-1.07-5.63-.6-3.2-1.22-6.85-1.83-8.53-.3-.91,.16-1.83,1.07-2.13,.92-.3,1.83,.16,2.14,1.06,.76,1.98,1.37,5.63,1.98,9.14,.31,1.68,.61,3.35,.92,4.57,7.46,2.9,13.41,10.05,15.7,18.72,65.83-3.04,135.48-10.66,207.1-22.38,5.03-.76,10.06-1.68,15.09-2.59,23.77-4.11,48.31-8.53,72.69-6.09,.61-4.88,3.35-8.22,8.23-10.2-2.14-27.09-3.2-54.49-3.51-81.59v-2.44c0-2.58,0-5.33-.45-7.76-9.45-2.13-17.07-10.81-17.98-20.55-.16-.91,.6-1.67,1.52-1.83,.91-.15,1.67,.61,1.83,1.52,.76,8.68,7.92,16.3,16.46,17.82,.61,.15,1.22,.6,1.37,1.21,.77,3.04,.77,6.55,.77,9.59v2.29c.3,27.4,1.38,55.26,3.51,82.67,0,.76-.46,1.52-1.22,1.68-4.88,1.52-7.16,4.41-7.31,9.28,0,.46-.15,.92-.61,1.22-.3,.3-.76,.46-1.22,.46-24.53-2.59-49.38,1.67-73.61,5.93-5.03,.92-10.06,1.83-15.09,2.59-72.23,12.03-142.49,19.48-208.94,22.53"/><path class="cls-1" d="M168.26,218.65c-.92,0-1.52-.6-1.68-1.52-.15-1.37-.3-2.89-.46-4.27-.15-1.36-.3-2.74-.45-4.27-.16-.76,.3-1.52,1.07-1.67,6.55-2.44,10.05-7.31,13.41-14.62,.3-.6,.76-.91,1.37-.91,11.43-.45,24.54-1.07,37.03-2.44,20.42-2.44,41.3-5.33,61.57-8.07l11.89-1.67c28.49-3.96,57.45-8.37,85.95-13.09,3.36-.6,6.86-1.22,10.21-1.68,29.26-5.02,59.59-10.04,89.77-11.11,.92,0,1.68,.61,1.68,1.67,0,.92-.76,1.68-1.68,1.68-30.03,1.06-60.05,6.24-89.31,11.11-3.35,.6-6.85,1.21-10.21,1.67-28.49,4.72-57.45,9.14-85.95,13.09l-11.89,1.67c-20.27,2.74-41.15,5.64-61.72,8.07-12.35,1.52-24.99,1.98-36.28,2.44-3.35,6.85-7.16,12.03-13.71,14.92,.16,1.06,.16,1.97,.3,3.05,.16,1.36,.31,2.73,.46,4.26,.16,.92-.6,1.68-1.37,1.68"/><path class="cls-1" d="M340.32,202.97c19.36,0,35.05,15.68,35.05,35.02s-15.69,35.02-35.05,35.02-35.05-15.68-35.05-35.02,15.69-35.02,35.05-35.02"/></g></svg>